<?xml version="1.0" encoding="iso-8859-1"?>
<!-- Uploaded to: SVG Repo, www.svgrepo.com, Generator: SVG Repo Mixer Tools -->
<svg fill="#729EA1" height="800px" width="800px" version="1.1" id="Layer_1" xmlns="http://www.w3.org/2000/svg" xmlns:xlink="http://www.w3.org/1999/xlink" 
	 viewBox="0 0 512 512" xml:space="preserve">
<g>
	<g>
		<path d="M508.774,307.734c-4.063-28.569-18.206-59.427-39.822-86.888c-3.629-4.609-10.307-5.405-14.917-1.777
			c-4.61,3.629-5.405,10.308-1.777,14.917c19.338,24.565,31.938,51.819,35.483,76.739c3.368,23.69-1.797,43.76-14.545,56.511
			c-20.544,20.546-58.515,20.842-99.095,0.771c-14.998-7.411-29.47-17.196-43.021-29.092c-3.578-3.134-7.147-6.479-10.61-9.942
			c-33.2-33.2-53.825-75.388-53.825-110.1c0-17.704,5.381-32.445,15.563-42.626c18.244-18.245,50.64-20.605,86.665-6.313
			c16.044,6.352,31.775,15.566,46.758,27.385c4.606,3.634,11.286,2.845,14.918-1.761c3.634-4.606,2.845-11.285-1.761-14.918
			c-13.834-10.912-28.31-19.838-43.14-26.628c22.167-22.845,34.255-50.938,34.255-80.155c0-5.867-4.756-10.622-10.622-10.622
			c-5.867,0-10.622,4.756-10.622,10.622c0,21.918-8.605,43.237-24.486,61.276c-11.708-25.705-26.863-47.449-44.366-63.454
			c-6.01-5.496-12.268-10.282-18.715-14.351c11.01-12.903,17.12-29.275,17.12-46.708C328.213,4.756,323.457,0,317.59,0
			c-5.867,0-10.622,4.756-10.622,10.622c0,14.07-5.637,27.166-15.644,36.737c-11.466-4.402-23.32-6.664-35.301-6.664
			c-11.979,0-23.833,2.263-35.298,6.663c-10.008-9.578-15.647-22.674-15.647-36.735C205.078,4.756,200.322,0,194.455,0
			s-10.622,4.756-10.622,10.622c0,17.426,6.111,33.797,17.121,46.706c-6.448,4.068-12.707,8.856-18.718,14.353
			c-17.501,16.004-32.655,37.748-44.364,63.454c-15.88-18.039-24.486-39.358-24.486-61.277c0-5.867-4.756-10.622-10.622-10.622
			s-10.622,4.756-10.622,10.622c0,29.218,12.089,57.313,34.259,80.158c-22.804,10.452-44.873,26.025-64.311,45.461
			C33.178,228.388,13.035,262.82,5.37,296.428c-8.067,35.373-1.513,65.855,18.458,85.83c14.473,14.473,34.651,21.763,57.75,21.763
			c17.087,0,35.774-4.006,54.93-12.029c-21.946,21.748-33.934,48.811-33.934,77.039c0,5.867,4.756,10.622,10.622,10.622
			s10.622-4.756,10.622-10.622c0-20.569,8.191-40.547,23.302-57.386c1.225,2.169,2.466,4.316,3.742,6.404
			c7.567,12.415,15.892,23.282,24.823,32.525v50.804c0,5.867,4.756,10.622,10.622,10.622s10.622-4.756,10.622-10.622v-32.692
			c18.264,12.552,38.273,19.159,59.092,19.159c20.823,0,40.831-6.606,59.092-19.156v32.689c0,5.867,4.756,10.622,10.622,10.622
			c5.867,0,10.622-4.756,10.622-10.622v-50.804c8.813-9.123,17.032-19.833,24.514-32.047c0.221-0.322,0.425-0.655,0.61-1.002
			c1.164-1.913,2.307-3.882,3.438-5.885c15.114,16.841,23.307,36.82,23.307,57.391c0,5.867,4.756,10.622,10.622,10.622
			s10.622-4.756,10.622-10.622c0-28.228-11.99-55.291-33.935-77.039c19.158,8.024,37.842,12.03,54.931,12.03
			c23.096-0.001,43.279-7.292,57.751-21.764C505.808,364.665,513.107,338.198,508.774,307.734z M298.072,336.284h-84.098
			c18.706-20.411,33.081-43.078,42.049-65.791C264.99,293.206,279.365,315.873,298.072,336.284z M256.023,61.939
			c38.395,0,75.201,30.73,98.447,81.184c-35.393-8.438-67.021-2.16-87.284,18.103c-4.36,4.36-8.084,9.257-11.163,14.62
			c-3.079-5.362-6.803-10.26-11.163-14.62c-20.262-20.262-51.892-26.54-87.284-18.103C180.822,92.668,217.629,61.939,256.023,61.939
			z M137.941,368.01c-40.578,20.068-78.547,19.772-99.091-0.772c-14.617-14.623-19.152-38.092-12.768-66.085
			c6.787-29.76,24.91-60.534,51.029-86.653c19.937-19.936,42.78-35.346,66.062-44.564c0.002-0.001,0.004-0.002,0.006-0.002
			c15.614-6.194,30.542-9.259,43.935-9.259c17.506,0,32.388,5.239,42.723,15.575c10.181,10.181,15.563,24.921,15.563,42.626
			c0,34.712-20.625,76.9-53.825,110.1c-3.463,3.464-7.033,6.809-10.617,9.949C167.414,350.812,152.942,360.598,137.941,368.01z
			 M256.023,466.6c-27.769,0-54.248-15.286-75.957-43.456h151.908C310.275,451.312,283.796,466.6,256.023,466.6z M352.602,389.419
			c-2.093,4.321-4.296,8.489-6.571,12.481H166.008c-2.299-4.033-4.5-8.204-6.564-12.478c-1.108-2.289-2.187-4.638-3.241-7.019
			c12.376-6.895,24.343-15.228,35.708-24.872h128.223c11.367,9.645,23.332,17.977,35.703,24.869
			C354.79,384.766,353.713,387.113,352.602,389.419z"/>
	</g>
</g>
<g>
	<g>
		<path d="M451.835,201.375c-0.62-0.635-1.247-1.267-1.878-1.899c-4.148-4.148-10.874-4.148-15.023,0
			c-4.147,4.149-4.147,10.875,0.001,15.023c0.575,0.575,1.145,1.15,1.71,1.728c2.081,2.128,4.837,3.196,7.595,3.196
			c2.678,0,5.359-1.007,7.426-3.027C455.861,212.295,455.936,205.57,451.835,201.375z"/>
	</g>
</g>
</svg>